HIERARCHY
ROOT root
{
	OFFSET	0	13.1	24.9
	CHANNELS 6  Xposition Yposition Zposition Xrotation Yrotation Zrotation
	JOINT spine_1
	{
		OFFSET	0	9.99999	0
		CHANNELS 3  Xrotation Yrotation Zrotation
		JOINT spine_2
		{
			OFFSET	0	112	-10
			CHANNELS 3  Xrotation Yrotation Zrotation
			JOINT spine_3
			{
				OFFSET	0	206.5	19.3
				CHANNELS 3  Xrotation Yrotation Zrotation
				JOINT spine_4
				{
					OFFSET	0	110.4	14.6
					CHANNELS 3  Xrotation Yrotation Zrotation
					JOINT neck_1
					{
						OFFSET	0	71.8	-50.3
						CHANNELS 3  Xrotation Yrotation Zrotation
						JOINT neck_2
						{
							OFFSET	0	86.2	-25.8
							CHANNELS 3  Xrotation Yrotation Zrotation
							JOINT head_ee
							{
								OFFSET	0	179.8	-8.7
								CHANNELS 3  Xrotation Yrotation Zrotation
								End Site
								{
									OFFSET	1	0	0
								}
							}
						}
					}
					JOINT left_clavicle
					{
						OFFSET	-43.2	22.4	-70.8
						CHANNELS 3  Xrotation Yrotation Zrotation
						JOINT left_shoulder
						{
							OFFSET	-93.9	-5.79999	48.7
							CHANNELS 3  Xrotation Yrotation Zrotation
							JOINT left_elbow
							{
								OFFSET	-291.4	-30.8	15.2
								CHANNELS 3  Xrotation Yrotation Zrotation
								JOINT left_lowarm_twist
								{
									OFFSET	-110.7	-3.89999	13.6
									CHANNELS 3  Xrotation Yrotation Zrotation
									JOINT left_hand
									{
										OFFSET	-110.7	-3.89999	13.6
										CHANNELS 3  Xrotation Yrotation Zrotation
										JOINT left_ee
										{
											OFFSET	-80.8	-5.10001	12.1
											CHANNELS 3  Xrotation Yrotation Zrotation
											End Site
											{
												OFFSET	1	0	0
											}
										}
									}
								}
							}
						}
					}
					JOINT right_clavicle
					{
						OFFSET	43.2	22.4	-70.8
						CHANNELS 3  Xrotation Yrotation Zrotation
						JOINT right_shoulder
						{
							OFFSET	93.9	-5.79999	48.7
							CHANNELS 3  Xrotation Yrotation Zrotation
							JOINT right_elbow
							{
								OFFSET	291.4	-30.8	15.2
								CHANNELS 3  Xrotation Yrotation Zrotation
								JOINT right_lowarm_twist
								{
									OFFSET	110.7	-3.89999	13.6
									CHANNELS 3  Xrotation Yrotation Zrotation
									JOINT right_hand
									{
										OFFSET	110.7	-3.89999	13.6
										CHANNELS 3  Xrotation Yrotation Zrotation
										JOINT right_ee
										{
											OFFSET	80.8	-5.10001	12.1
											CHANNELS 3  Xrotation Yrotation Zrotation
											End Site
											{
												OFFSET	1	0	0
											}
										}
									}
								}
							}
						}
					}
				}
			}
		}
	}
	JOINT left_hip
	{
		OFFSET	-82.8	-127.5	0.300001
		CHANNELS 3  Xrotation Yrotation Zrotation
		JOINT left_knee
		{
			OFFSET	-28.2	-396.7	2.2
			CHANNELS 3  Xrotation Yrotation Zrotation
			JOINT left_ankle
			{
				OFFSET	-11.7	-411.3	35.4
				CHANNELS 3  Xrotation Yrotation Zrotation
				JOINT left_toes
				{
					OFFSET	0	-60	-88.6
					CHANNELS 3  Xrotation Yrotation Zrotation
					JOINT left_foot_ee
					{
						OFFSET	-22.5	-16.5	-42.2
						CHANNELS 3  Xrotation Yrotation Zrotation
						End Site
						{
							OFFSET	1	0	0
						}
					}
				}
			}
		}
	}
	JOINT right_hip
	{
		OFFSET	82.8	-127.5	0.300001
		CHANNELS 3  Xrotation Yrotation Zrotation
		JOINT right_knee
		{
			OFFSET	28.2	-396.7	2.2
			CHANNELS 3  Xrotation Yrotation Zrotation
			JOINT right_ankle
			{
				OFFSET	11.7	-411.3	35.4
				CHANNELS 3  Xrotation Yrotation Zrotation
				JOINT right_toes
				{
					OFFSET	0	-60	-88.6
					CHANNELS 3  Xrotation Yrotation Zrotation
					JOINT right_foot_ee
					{
						OFFSET	22.5	-16.5	-42.2
						CHANNELS 3  Xrotation Yrotation Zrotation
						End Site
						{
							OFFSET	1	0	0
						}
					}
				}
			}
		}
	}
}
MOTION
Frames: 5
Frame Time: 0.02
1627.29 536.442 -522.26 74.1722 -74.4752 79.6165 -7.88469 -0.495403 -3.74896 -7.87691 -0.256017 -3.77284 -7.84051 1.04933 -3.6332 -7.85862 0.462796 -3.75312 -5.1798 9.61448 10.2434 -4.8997 10.0037 12.0609 -0.0 0.0 -0.0 10.167 13.9176 18.6767 29.6963 -33.1598 81.4883 38.5286 -86.7628 36.5554 16.0342 0.283687 -2.02192 1.42878 19.5421 16.6656 -0.0 0.0 -0.0 10.9518 -7.37806 -20.9778 -7.82967 -3.43786 -51.6049 0.205048 5.80007 -0.0103874 16.1197 -0.283673 2.03283 6.31334 -33.0081 -54.4394 0.0 0.0 0.0 -23.5605 21.532 -13.2722 -43.9349 -0.735887 6.54014 42.0877 14.1429 -5.10221 40.269 -0.0 -0.0 -0.0 0.0 -0.0 35.0343 7.53587 -4.02652 -41.6849 0.577424 -6.23252 21.4214 -2.51494 2.91422 21.1124 -0.0 -0.0 0.0 0.0 0.0 
1642.86 530.744 -521.996 67.1098 -74.3183 72.0309 -7.94073 -0.714488 -3.86598 -7.93253 -0.46723 -3.90353 -7.87846 0.897746 -3.82764 -7.89879 0.282464 -3.92121 -5.20579 9.7341 9.68208 -4.95417 10.6576 11.5141 -0.0 0.0 -0.0 10.4413 11.5526 19.4919 28.5439 -34.4158 79.1662 40.3961 -86.8882 38.42 13.9075 0.278794 -1.75033 1.38841 19.4472 16.3824 -0.0 0.0 -0.0 10.5145 -6.56959 -20.206 -5.11926 -1.75854 -51.4245 0.192306 5.44187 -0.00913933 16.1368 -0.283669 2.03501 6.31336 -33.0687 -54.4264 0.0 0.0 0.0 -24.8604 22.4015 -13.1685 -41.1512 -0.541628 6.15868 42.3935 16.1442 -5.16103 40.2904 -0.0 -0.0 -0.0 0.0 -0.0 36.7089 8.01992 -1.7425 -47.4062 1.00385 -7.00215 25.367 -5.77165 3.37349 22.8872 -0.0 -0.0 0.0 0.0 0.0 
1668.22 525.483 -522.541 63.5304 -73.8076 67.6555 -8.07808 -0.767137 -3.96161 -8.06949 -0.513703 -4.0023 -8.00973 0.896908 -3.9343 -8.03122 0.264832 -4.02639 -5.00488 9.27398 10.0929 -4.73293 9.44678 11.8465 -0.0 0.0 -0.0 10.576 10.5691 19.8697 26.3216 -34.4935 78.961 63.4411 -87.7444 61.441 10.7746 0.253238 -1.35104 1.38569 19.2331 16.2974 -0.0 0.0 -0.0 10.3519 -6.49958 -19.894 -3.3963 -0.705479 -51.1828 0.278896 7.8662 -0.0191751 16.3015 -0.283589 2.05605 6.20543 -32.7375 -53.3949 0.0 0.0 0.0 -26.6744 20.9853 -12.9 -41.4331 -0.560447 6.19771 42.4547 16.9123 -5.18069 40.2052 -0.0 -0.0 -0.0 0.0 -0.0 37.8677 8.22165 -0.703528 -51.868 1.38872 -7.57108 24.5387 -8.31588 3.27837 23.8345 -0.0 -0.0 0.0 0.0 0.0 
1685.32 522.878 -520.076 61.4184 -73.6636 65.1574 -8.16718 -0.797974 -4.17743 -8.15763 -0.530779 -4.21964 -8.09184 0.961858 -4.14282 -8.11566 0.296124 -4.24252 -5.06386 8.89524 9.40042 -4.82767 9.28904 11.0834 -0.0 0.0 -0.0 10.5969 9.19952 20.0778 23.442 -34.4121 77.388 62.3467 -87.7222 60.3475 7.80648 0.208925 -0.974536 0.983551 17.5569 13.221 -0.0 0.0 -0.0 10.5271 -6.53972 -20.2337 -2.86406 1.14801 -50.3175 0.347817 9.77619 -0.0297457 15.9118 -0.283679 2.00628 6.22902 -32.7034 -53.6395 0.0 0.0 0.0 -25.8046 20.8513 -13.5589 -42.7321 -0.649665 6.37645 42.058 22.4051 -5.27897 40.1875 -0.0 -0.0 -0.0 0.0 -0.0 38.5769 7.81105 0.297238 -55.0827 1.69305 -7.96186 20.3041 -10.1782 2.77233 24.029 -0.0 -0.0 0.0 0.0 0.0 
1705.04 521.785 -515.639 56.8647 -74.4496 60.3905 -8.0991 -0.750325 -4.3324 -8.08879 -0.473393 -4.37126 -8.02471 1.06344 -4.26647 -8.0499 0.376966 -4.38061 -5.28289 8.10812 8.71867 -5.08062 8.40042 10.2665 -0.0 0.0 -0.0 10.595 8.93999 20.1048 22.2138 -34.921 77.1525 85.3724 -87.9756 83.3574 6.53572 0.184001 -0.814126 1.15031 17.835 14.3617 -0.0 0.0 -0.0 10.2762 -5.95521 -19.7964 -1.32027 1.97794 -50.6305 0.383149 10.7472 -0.0360402 16.309 -0.283584 2.05701 6.19582 -32.3993 -53.362 0.0 0.0 0.0 -24.1266 23.1181 -15.1471 -42.2904 -0.618875 6.3159 42.5779 24.2084 -5.3817 40.1597 -0.0 -0.0 -0.0 0.0 -0.0 39.2684 7.29938 0.954795 -56.5313 1.83731 -8.13233 23.7419 -12.4056 3.19893 25.9214 -0.0 -0.0 0.0 0.0 0.0 
